# xmcd
#
# Track frame offsets:
#	150
#	19581
#	37524
#	55590
#	76877
#	95835
#	109188
#	123143
#	141610
#	159397
#	177550
#	196997
#	215195
#	229948
#	242784
#	259895
#	275820
#	289388
#	304063
#	321369
#
# Disc length: 4434 seconds
#
# Revision: 1
# Processed by: cddbd v1.5.1PL0 Copyright (c) Steve Scherf et al.
# Submitted via: CDex 1.50Beta5
#
DISCID=2c115014
DTITLE=ファンタステック・オーケストラ - 永遠の映画音楽/愛と青春
DYEAR=1900
DGENRE=Soundtrack
TTITLE0=マイ・ハート・ウィル・ゴー・オン/タイタニック
TTITLE1=オールウェズ・ラブ・ユー/ボディガード
TTITLE2=美女と野獣　メイン・テーマ
TTITLE3=ゴー・ザ・ディスタンス/ヘラクレス
TTITLE4=愛と青春の旅立ち
TTITLE5=ジャーニー・トゥ・ザ・パスト/アナスタシア
TTITLE6=アンチェインド・メロディ/ゴースト
TTITLE7=ホール・ニュー・ワールド/アラジン
TTITLE8=愛を信じて/ライオン・キング
TTITLE9=愛は吐息のように/トップ・ガン
TTITLE10=エンドレス・ラブ
TTITLE11=愛のファンタジー/ラ・ブーム
TTITLE12=スター誕生　愛のテーマ
TTITLE13=サウンド・オブ・サイレンス/卒業
TTITLE14=ロミオとジュリエット
TTITLE15=青い珊瑚礁
TTITLE16=ホワット・ア・フィーリング/フラッシュ・ダンス
TTITLE17=ロッキー　メイン・テーマ
TTITLE18=フィールド・オブ・ドリームス
TTITLE19=男が女を愛する時
EXTD=
EXTT0=
EXTT1=
EXTT2=
EXTT3=
EXTT4=
EXTT5=
EXTT6=
EXTT7=
EXTT8=
EXTT9=
EXTT10=
EXTT11=
EXTT12=
EXTT13=
EXTT14=
EXTT15=
EXTT16=
EXTT17=
EXTT18=
EXTT19=
PLAYORDER=
